<mxfile host="app.diagrams.net" modified="2023-06-03T17:33:53.163Z" agent="Mozilla/5.0 (Windows NT 10.0; Win64; x64) AppleWebKit/537.36 (KHTML, like Gecko) Chrome/112.0.0.0 Safari/537.36 OPR/98.0.0.0" etag="J6IqXXeTTOZ-pwrgIcr-" version="21.3.7" type="github">
  <diagram name="Page-1" id="VIBHRr5CBbTniVZl_Z7_">
    <mxGraphModel dx="2261" dy="758" grid="1" gridSize="10" guides="1" tooltips="1" connect="1" arrows="1" fold="1" page="1" pageScale="1" pageWidth="827" pageHeight="1169" math="0" shadow="0">
      <root>
        <mxCell id="0" />
        <mxCell id="1" parent="0" />
        <mxCell id="sX611sH9SaRVSQqvkoNw-1" value="" style="pointerEvents=1;verticalLabelPosition=bottom;shadow=0;dashed=0;align=center;html=1;verticalAlign=top;shape=mxgraph.electrical.waveforms.sine_wave;strokeWidth=4;" vertex="1" parent="1">
          <mxGeometry x="150" y="530" width="122" height="420" as="geometry" />
        </mxCell>
        <mxCell id="sX611sH9SaRVSQqvkoNw-2" value="" style="endArrow=none;html=1;rounded=0;" edge="1" parent="1">
          <mxGeometry width="50" height="50" relative="1" as="geometry">
            <mxPoint x="120" y="740" as="sourcePoint" />
            <mxPoint x="820" y="740" as="targetPoint" />
          </mxGeometry>
        </mxCell>
        <mxCell id="sX611sH9SaRVSQqvkoNw-3" value="" style="endArrow=classic;html=1;rounded=0;exitX=1;exitY=1;exitDx=0;exitDy=0;" edge="1" parent="1" source="sX611sH9SaRVSQqvkoNw-4">
          <mxGeometry width="50" height="50" relative="1" as="geometry">
            <mxPoint x="148" y="940" as="sourcePoint" />
            <mxPoint x="148" y="560" as="targetPoint" />
          </mxGeometry>
        </mxCell>
        <mxCell id="sX611sH9SaRVSQqvkoNw-4" value="-500" style="text;html=1;strokeColor=none;fillColor=none;align=center;verticalAlign=middle;whiteSpace=wrap;rounded=0;fontStyle=1;fontSize=18;" vertex="1" parent="1">
          <mxGeometry x="88" y="881" width="60" height="30" as="geometry" />
        </mxCell>
        <mxCell id="sX611sH9SaRVSQqvkoNw-5" value="" style="endArrow=none;dashed=1;html=1;dashPattern=1 3;strokeWidth=2;rounded=0;entryX=0.249;entryY=0.123;entryDx=0;entryDy=0;entryPerimeter=0;exitX=-0.005;exitY=0.123;exitDx=0;exitDy=0;exitPerimeter=0;" edge="1" parent="1" source="sX611sH9SaRVSQqvkoNw-1" target="sX611sH9SaRVSQqvkoNw-1">
          <mxGeometry width="50" height="50" relative="1" as="geometry">
            <mxPoint x="149" y="580" as="sourcePoint" />
            <mxPoint x="180" y="582" as="targetPoint" />
          </mxGeometry>
        </mxCell>
        <mxCell id="sX611sH9SaRVSQqvkoNw-6" value="500" style="text;html=1;strokeColor=none;fillColor=none;align=center;verticalAlign=middle;whiteSpace=wrap;rounded=0;fontStyle=1;fontSize=18;" vertex="1" parent="1">
          <mxGeometry x="88" y="570" width="60" height="30" as="geometry" />
        </mxCell>
        <mxCell id="sX611sH9SaRVSQqvkoNw-7" value="" style="endArrow=none;dashed=1;html=1;dashPattern=1 3;strokeWidth=2;rounded=0;exitX=-0.013;exitY=0.873;exitDx=0;exitDy=0;exitPerimeter=0;entryX=0.742;entryY=0.873;entryDx=0;entryDy=0;entryPerimeter=0;" edge="1" parent="1" source="sX611sH9SaRVSQqvkoNw-1" target="sX611sH9SaRVSQqvkoNw-1">
          <mxGeometry width="50" height="50" relative="1" as="geometry">
            <mxPoint x="148" y="901" as="sourcePoint" />
            <mxPoint x="614" y="901" as="targetPoint" />
          </mxGeometry>
        </mxCell>
        <mxCell id="sX611sH9SaRVSQqvkoNw-8" value="" style="pointerEvents=1;verticalLabelPosition=bottom;shadow=0;dashed=0;align=center;html=1;verticalAlign=top;shape=mxgraph.electrical.waveforms.sine_wave;strokeWidth=4;" vertex="1" parent="1">
          <mxGeometry x="272" y="530" width="116" height="420" as="geometry" />
        </mxCell>
        <mxCell id="sX611sH9SaRVSQqvkoNw-9" value="" style="pointerEvents=1;verticalLabelPosition=bottom;shadow=0;dashed=0;align=center;html=1;verticalAlign=top;shape=mxgraph.electrical.waveforms.sine_wave;strokeWidth=4;" vertex="1" parent="1">
          <mxGeometry x="388" y="530" width="126" height="420" as="geometry" />
        </mxCell>
        <mxCell id="sX611sH9SaRVSQqvkoNw-10" value="" style="pointerEvents=1;verticalLabelPosition=bottom;shadow=0;dashed=0;align=center;html=1;verticalAlign=top;shape=mxgraph.electrical.waveforms.sine_wave;strokeWidth=4;" vertex="1" parent="1">
          <mxGeometry x="514" y="531" width="126" height="420" as="geometry" />
        </mxCell>
        <mxCell id="sX611sH9SaRVSQqvkoNw-11" value="" style="pointerEvents=1;verticalLabelPosition=bottom;shadow=0;dashed=0;align=center;html=1;verticalAlign=top;shape=mxgraph.electrical.waveforms.sine_wave;strokeWidth=4;" vertex="1" parent="1">
          <mxGeometry x="640" y="530" width="128" height="420" as="geometry" />
        </mxCell>
        <mxCell id="sX611sH9SaRVSQqvkoNw-12" value="&lt;b style=&quot;font-size: 18px;&quot;&gt;Depth = 500&amp;nbsp;&lt;/b&gt;" style="text;html=1;strokeColor=none;fillColor=none;align=center;verticalAlign=middle;whiteSpace=wrap;rounded=0;fontSize=18;" vertex="1" parent="1">
          <mxGeometry x="-1" y="670" width="130" height="30" as="geometry" />
        </mxCell>
        <mxCell id="sX611sH9SaRVSQqvkoNw-13" value="&lt;b style=&quot;font-size: 18px;&quot;&gt;Rate = 5 Hz&amp;nbsp;&lt;/b&gt;" style="text;html=1;strokeColor=none;fillColor=none;align=center;verticalAlign=middle;whiteSpace=wrap;rounded=0;fontSize=18;" vertex="1" parent="1">
          <mxGeometry x="-1" y="700" width="130" height="30" as="geometry" />
        </mxCell>
        <mxCell id="sX611sH9SaRVSQqvkoNw-14" value="&lt;b style=&quot;font-size: 18px;&quot;&gt;Counter = 128&amp;nbsp;&lt;/b&gt;" style="text;html=1;strokeColor=none;fillColor=none;align=center;verticalAlign=middle;whiteSpace=wrap;rounded=0;fontSize=18;" vertex="1" parent="1">
          <mxGeometry x="9" y="640" width="130" height="30" as="geometry" />
        </mxCell>
        <mxCell id="sX611sH9SaRVSQqvkoNw-15" value="0" style="text;html=1;strokeColor=none;fillColor=none;align=center;verticalAlign=middle;whiteSpace=wrap;rounded=0;fontStyle=1;fontSize=18;" vertex="1" parent="1">
          <mxGeometry x="106" y="712" width="60" height="30" as="geometry" />
        </mxCell>
        <mxCell id="sX611sH9SaRVSQqvkoNw-16" value="" style="endArrow=classic;html=1;rounded=0;fontSize=18;strokeWidth=1;entryX=0.5;entryY=1;entryDx=0;entryDy=0;" edge="1" parent="1" target="sX611sH9SaRVSQqvkoNw-17">
          <mxGeometry width="50" height="50" relative="1" as="geometry">
            <mxPoint x="452" y="744" as="sourcePoint" />
            <mxPoint x="452" y="712" as="targetPoint" />
          </mxGeometry>
        </mxCell>
        <mxCell id="sX611sH9SaRVSQqvkoNw-17" value="24000" style="text;html=1;strokeColor=none;fillColor=none;align=center;verticalAlign=middle;whiteSpace=wrap;rounded=0;fontStyle=1;fontSize=18;" vertex="1" parent="1">
          <mxGeometry x="430" y="668" width="90" height="30" as="geometry" />
        </mxCell>
        <mxCell id="sX611sH9SaRVSQqvkoNw-18" value="" style="endArrow=classic;html=1;rounded=0;fontSize=18;strokeWidth=1;entryX=1;entryY=0.385;entryDx=0;entryDy=0;entryPerimeter=0;" edge="1" parent="1">
          <mxGeometry width="50" height="50" relative="1" as="geometry">
            <mxPoint x="768" y="744" as="sourcePoint" />
            <mxPoint x="768" y="695" as="targetPoint" />
          </mxGeometry>
        </mxCell>
        <mxCell id="sX611sH9SaRVSQqvkoNw-19" value="48000" style="text;html=1;strokeColor=none;fillColor=none;align=center;verticalAlign=middle;whiteSpace=wrap;rounded=0;fontStyle=1;fontSize=18;" vertex="1" parent="1">
          <mxGeometry x="723" y="668" width="90" height="30" as="geometry" />
        </mxCell>
      </root>
    </mxGraphModel>
  </diagram>
</mxfile>
